HIERARCHY
ROOT Hips
{
 OFFSET 0.000000 0.000000 0.000000
 CHANNELS 6 Xposition Yposition Zposition Yrotation Xrotation Zrotation
 JOINT Chest
 {
  OFFSET 0.000000 10.678932 0.006280
  CHANNELS 3 Yrotation Xrotation Zrotation
  JOINT Chest2
  {
   OFFSET 0.000000 10.491159 -0.011408
   CHANNELS 3 Yrotation Xrotation Zrotation
   JOINT Chest3
   {
    OFFSET 0.000000 9.479342 0.000000
    CHANNELS 3 Yrotation Xrotation Zrotation
    JOINT Chest4
    {
     OFFSET 0.000000 9.479342 0.000000
     CHANNELS 3 Yrotation Xrotation Zrotation
     JOINT Neck
     {
      OFFSET 0.000000 13.535332 0.000000
      CHANNELS 3 Yrotation Xrotation Zrotation
      JOINT Head
      {
       OFFSET 0.000000 8.819083 -0.027129
       CHANNELS 3 Yrotation Xrotation Zrotation
       End Site
       {
        OFFSET 0.000000 16.966594 -0.014170
       }
      }
     }
     JOINT RightCollar
     {
      OFFSET -3.012546 7.545150 0.000000
      CHANNELS 3 Yrotation Xrotation Zrotation
      JOINT RightShoulder
      {
       OFFSET -13.683099 0.000000 0.000000
       CHANNELS 3 Yrotation Xrotation Zrotation
       JOINT RightElbow
       {
        OFFSET -26.359998 0.000000 0.000000
        CHANNELS 3 Yrotation Xrotation Zrotation
        JOINT RightWrist
        {
         OFFSET -21.746691 0.000000 0.008601
         CHANNELS 3 Yrotation Xrotation Zrotation
         End Site
         {
          OFFSET -16.348058 0.000000 0.000000
         }
        }
       }
      }
     }
     JOINT LeftCollar
     {
      OFFSET 3.012546 7.545150 0.000000
      CHANNELS 3 Yrotation Xrotation Zrotation
      JOINT LeftShoulder
      {
       OFFSET 13.683099 0.000000 0.000000
       CHANNELS 3 Yrotation Xrotation Zrotation
       JOINT LeftElbow
       {
        OFFSET 26.359998 0.000000 0.000000
        CHANNELS 3 Yrotation Xrotation Zrotation
        JOINT LeftWrist
        {
         OFFSET 21.746691 0.000000 0.008601
         CHANNELS 3 Yrotation Xrotation Zrotation
         End Site
         {
          OFFSET 16.348058 0.000000 0.000000
         }
        }
       }
      }
     }
    }
   }
  }
 }
 JOINT RightHip
 {
  OFFSET -8.622479 -0.030774 -0.003140
  CHANNELS 3 Yrotation Xrotation Zrotation
  JOINT RightKnee
  {
   OFFSET 0.000000 -37.209160 -0.002630
   CHANNELS 3 Yrotation Xrotation Zrotation
   JOINT RightAnkle
   {
    OFFSET 0.000000 -37.343279 -0.058479
    CHANNELS 3 Yrotation Xrotation Zrotation
    JOINT RightToe
    {
     OFFSET 0.000000 -8.903465 15.088070
     CHANNELS 3 Yrotation Xrotation Zrotation
     End Site
     {
      OFFSET 0.000000 -1.471739 6.884388
     }
    }
   }
  }
 }
 JOINT LeftHip
 {
  OFFSET 8.622479 -0.030774 -0.003140
  CHANNELS 3 Yrotation Xrotation Zrotation
  JOINT LeftKnee
  {
   OFFSET 0.000000 -37.209160 -0.002630
   CHANNELS 3 Yrotation Xrotation Zrotation
   JOINT LeftAnkle
   {
    OFFSET 0.000000 -37.343279 -0.058479
    CHANNELS 3 Yrotation Xrotation Zrotation
    JOINT LeftToe
    {
     OFFSET 0.000000 -8.903465 15.088070
     CHANNELS 3 Yrotation Xrotation Zrotation
     End Site
     {
      OFFSET 0.000000 -1.471739 6.884388
     }
    }
   }
  }
 }
}
MOTION
Frames: 6
Frame Time: 0.025000
-12.854401 78.225100 -20.380932 -152.830173 -9.388171 -3.737679 5.487818 10.336205 1.841121 0.456220 0.872801 0.105263 0.697325 1.332387 0.163540 4.697343 8.735135 1.385709 -6.338651 14.573031 0.540962 -12.107342 -8.805822 3.440847 -5.507725 0.187457 -5.777266 13.013120 -28.294313 47.382459 37.282307 -7.763056 1.591794 -6.047776 -3.826495 -18.488963 -6.184316 -13.807144 15.182072 19.301282 -32.805974 -59.362242 -88.488782 -15.867392 6.272035 17.393761 9.472816 16.926104 -7.832886 0.314844 -15.615697 11.710061 25.590469 0.819209 -1.345839 -21.739409 12.382157 0.024034 0.599820 0.055405 -16.491437 -11.767286 31.217898 5.914161 61.085509 -0.354749 -3.286572 3.879488 -28.431028 -0.061081 -22.669768 -1.366816
-13.369995 77.888424 -20.100899 -155.974340 -8.379600 -3.131802 6.789794 9.974706 2.517940 0.588943 0.889460 0.157706 0.895483 1.350209 0.243132 5.781674 8.442161 1.898124 -6.458797 14.091536 -0.697298 -11.892579 -9.813736 1.213457 -4.596930 0.496699 -4.263118 12.287007 -26.451228 48.843298 34.862945 -7.441543 2.190189 -5.377012 -4.256851 -19.137516 -6.343062 -16.417006 17.790699 21.005826 -34.603899 -59.302826 -91.268472 -16.384557 6.715565 17.297509 8.256777 16.520101 -8.464277 -3.025234 -16.039745 14.222994 26.665639 0.390656 0.019498 -21.684060 13.294981 -0.014636 0.430942 -0.208457 -21.306414 -11.136279 28.181530 -1.572703 61.154306 -1.873524 -4.836037 2.002444 -27.142911 -0.185135 -22.161726 -3.642784
-13.913328 77.596907 -19.760497 -157.974510 -7.891018 -2.466082 7.457486 9.738892 3.034096 0.654867 0.901174 0.208730 0.992699 1.363267 0.320006 6.263027 8.281710 2.354243 -6.427311 13.884075 -1.934353 -11.359078 -10.307761 -1.107058 -4.097280 0.781059 -3.218392 11.646457 -25.224111 49.538676 33.742646 -7.195873 2.635454 -4.894346 -4.588211 -19.343215 -6.311714 -16.943713 20.147878 20.468631 -33.770259 -57.566081 -92.484854 -18.287743 9.260132 17.341450 7.912128 16.267183 -8.332575 -5.320980 -16.948222 15.838894 27.707924 0.705466 0.698620 -21.459782 13.959859 -0.062599 0.169303 -0.297998 -25.535296 -11.003101 24.569654 -7.600225 61.571184 -1.818755 -5.829414 0.098915 -26.439252 -0.432656 -21.432224 -4.363142
-14.585149 77.311208 -19.280153 -159.019435 -7.317395 -1.581972 7.452239 9.559801 3.189470 0.638060 0.866831 0.233727 0.969185 1.313670 0.358293 6.218680 8.085611 2.612357 -6.290354 13.958821 -2.898268 -10.716008 -10.244114 -2.980849 -3.659169 0.974299 -2.501123 11.256905 -24.322314 49.439544 33.394162 -6.657607 2.685273 -4.578842 -4.708734 -19.734034 -5.272920 -16.070644 20.799233 19.664886 -33.095833 -56.014038 -91.542868 -19.157200 10.732659 17.280212 7.803370 16.061513 -6.642442 -6.796633 -18.633800 14.561841 28.429529 0.951037 1.776199 -21.091891 14.540383 -0.095380 -0.049227 -0.271798 -29.366237 -11.780990 21.222854 -10.396831 62.720915 -0.749171 -6.978203 -1.568048 -25.399952 -0.532593 -18.493439 -3.250587
-15.075531 77.085076 -18.766859 -159.497352 -6.698959 -0.906239 7.172632 9.428527 3.270789 0.600116 0.841258 0.239390 0.913861 1.278036 0.367474 5.988600 8.019149 2.699273 -6.074368 14.025543 -3.519624 -10.061252 -10.162781 -4.239375 -3.247992 1.009731 -2.559642 10.783112 -23.491490 49.173175 33.386818 -6.759724 2.345660 -4.381685 -4.775612 -20.070902 -3.708710 -14.919041 20.504574 20.712076 -33.073496 -56.052624 -89.845052 -19.973142 9.787632 17.055787 7.643626 16.045401 -4.976055 -7.951321 -19.729974 13.516479 29.179712 0.856069 1.863623 -20.717029 15.044552 -0.074819 -0.238368 -0.079832 -33.135330 -12.671399 19.318011 -13.826476 63.875125 -2.519073 -5.714834 -2.842702 -24.877790 -0.562854 -17.056094 -3.297695
-15.340173 76.947605 -18.202442 -159.726442 -6.381024 -0.159855 6.893015 9.669879 3.088576 0.568862 0.855796 0.224674 0.866744 1.300942 0.345165 5.707679 8.211368 2.558244 -5.779094 13.667386 -3.671050 -9.450063 -10.840012 -4.623788 -2.926120 0.677666 -2.944465 9.813321 -23.093840 48.879567 33.161686 -6.801893 1.987690 -4.443877 -4.692453 -19.949381 -2.655832 -14.066972 19.934922 21.838763 -32.815522 -55.870914 -88.171161 -20.739766 9.480485 16.617668 7.772728 16.317692 -4.828868 -9.178469 -20.394039 14.992688 29.856952 0.927007 0.896042 -20.508677 15.318405 -0.056241 -0.243697 0.161181 -34.223962 -13.561679 18.799549 -12.229894 64.539297 -2.414982 -5.385857 -4.178893 -22.919259 -0.618160 -13.833230 -3.675003
